<svg width="73" height="43" viewBox="0 0 73 43" fill="none" xmlns="http://www.w3.org/2000/svg">
<path d="M2.24411 0.4H21.6112C22.4005 0.4 23.0719 0.975642 23.1924 1.75573L23.6614 4.7917C23.8422 5.96183 24.8493 6.82529 26.0333 6.82529H52.815C53.6261 6.82529 54.3088 7.43213 54.404 8.23758L55.1869 14.8646L56.5757 35.2958L6.9386 42.3166C6.04777 42.4426 5.22823 41.8096 5.12507 40.9158L0.654665 2.18345C0.545014 1.23342 1.28777 0.4 2.24411 0.4Z" fill="#FC8455" stroke="black" stroke-width="0.8"/>
<path d="M63.6488 31.3085L63.6488 31.3084L63.6454 31.315L58.2062 41.7401C57.9304 42.2686 57.3837 42.6 56.7876 42.6H25H7.23607C6.04666 42.6 5.27306 41.3483 5.80498 40.2845L17.805 16.2845C18.076 15.7424 18.63 15.4 19.2361 15.4H40.5H69.6309C70.8454 15.4 71.6171 16.7 71.0355 17.7662L63.6488 31.3085Z" fill="#FC8455" stroke="black" stroke-width="0.8"/>
</svg>
